<svg xmlns="http://www.w3.org/2000/svg" width="36" height="36" viewBox="0 0 36 36" fill="none">
    <path fill-rule="evenodd" clip-rule="evenodd"
        d="M32.5333 28.6353C34.7077 25.6404 36 21.9686 36 18.0096C36 14.0301 34.7077 10.3583 32.5333 7.36346L26.5229 13.3942C27.2614 14.7481 27.6717 16.3276 27.6717 18.0096C27.6717 19.6712 27.2614 21.2506 26.5229 22.6045L32.5333 28.6353Z"
        fill="#5E3AAB" />
    <path fill-rule="evenodd" clip-rule="evenodd"
        d="M17.99 0C8.06164 0 0 8.06154 0 18.0103C0 27.9385 8.06164 36 17.99 36C21.9695 36 25.6413 34.7077 28.6362 32.5333L22.6054 26.5231C21.2515 27.2615 19.672 27.6718 17.99 27.6718C12.6566 27.6718 8.32831 23.3436 8.32831 18.0103C8.32831 12.6564 12.6566 8.32821 17.99 8.32821C19.672 8.32821 21.2515 8.73846 22.6054 9.49744L28.6362 3.46667C25.6413 1.29231 21.9695 0 17.99 0Z"
        fill="#005960" />
</svg>